<svg xmlns="http://www.w3.org/2000/svg" version="1.1" xmlns:xlink="http://www.w3.org/1999/xlink" xmlns:svgjs="http://svgjs.com/svgjs" width="1440" height="600" preserveAspectRatio="none" viewBox="0 0 1440 600">
    <g mask="url(&quot;#SvgjsMask1009&quot;)" fill="none">
        <rect width="1440" height="600" x="0" y="0" fill="#0e2a47"></rect>
        <path d="M25 600L625 0L874 0L274 600z" fill="url(#SvgjsLinearGradient1010)"></path>
        <path d="M526.2 600L1126.2 0L1481.7 0L881.7 600z" fill="url(#SvgjsLinearGradient1010)"></path>
        <path d="M1356 600L756 0L228 0L828 600z" fill="url(#SvgjsLinearGradient1011)"></path>
        <path d="M895.8 600L295.79999999999995 0L-155.70000000000005 0L444.29999999999995 600z" fill="url(#SvgjsLinearGradient1011)"></path>
        <path d="M847.1720896218493 600L1440 7.172089621849295L1440 600z" fill="url(#SvgjsLinearGradient1010)"></path>
        <path d="M0 600L592.8279103781507 600L 0 7.172089621849295z" fill="url(#SvgjsLinearGradient1011)"></path>
    </g>
    <defs>
        <mask id="SvgjsMask1009">
            <rect width="1440" height="600" fill="#ffffff"></rect>
        </mask>
        <linearGradient x1="0%" y1="100%" x2="100%" y2="0%" id="SvgjsLinearGradient1010">
            <stop stop-color="rgba(15, 70, 185, 0.2)" offset="0"></stop>
            <stop stop-opacity="0" stop-color="rgba(15, 70, 185, 0.2)" offset="0.66"></stop>
        </linearGradient>
        <linearGradient x1="100%" y1="100%" x2="0%" y2="0%" id="SvgjsLinearGradient1011">
            <stop stop-color="rgba(15, 70, 185, 0.2)" offset="0"></stop>
            <stop stop-opacity="0" stop-color="rgba(15, 70, 185, 0.2)" offset="0.66"></stop>
        </linearGradient>
    </defs>
</svg>